<?xml version="1.0" encoding="iso-8859-1"?>
<!-- Generator: Adobe Illustrator 19.0.0, SVG Export Plug-In . SVG Version: 6.00 Build 0)  -->
<svg xmlns="http://www.w3.org/2000/svg" xmlns:xlink="http://www.w3.org/1999/xlink" version="1.1" id="Capa_1" x="0px" y="0px" viewBox="0 0 503.873 503.873" style="enable-background:new 0 0 503.873 503.873;" xml:space="preserve" width="512px" height="512px">
<g>
	<g>
		<path d="M463.238,162.54H82.895L388.47,40.635c4.064,4.876,10.565,8.127,17.879,8.127c13.816,0,24.381-10.565,24.381-24.381    S420.165,0,406.349,0s-24.381,10.565-24.381,24.381c0,0.813,0,0.813,0,1.625L38.197,162.54C17.067,163.352,0,181.232,0,203.175    v260.064c0,22.756,17.879,40.635,40.635,40.635h422.603c22.756,0,40.635-17.879,40.635-40.635V203.175    C503.873,180.419,485.994,162.54,463.238,162.54z M406.349,16.254c4.876,0,8.127,3.251,8.127,8.127    c0,4.876-3.251,8.127-8.127,8.127s-8.127-3.251-8.127-8.127C398.222,19.505,401.473,16.254,406.349,16.254z M487.619,463.238    c0,13.816-10.565,24.381-24.381,24.381H40.635c-13.816,0-24.381-10.565-24.381-24.381V203.175    c0-13.816,10.565-24.381,24.381-24.381h422.603c13.816,0,24.381,10.565,24.381,24.381V463.238z" fill="#2980b9"/>
	</g>
</g>
<g>
	<g>
		<path d="M48.762,203.175v73.143h406.349v-73.143H48.762z M438.857,260.064h-32.508V243.81h-16.254v16.254h-32.508v-24.381h-16.254    v24.381h-32.508V243.81h-16.254v16.254h-32.508v-24.381H243.81v24.381h-32.508V243.81h-16.254v16.254H162.54v-24.381h-16.254    v24.381h-32.508V243.81H97.524v16.254H65.016v-40.635h373.841V260.064z" fill="#2980b9"/>
	</g>
</g>
<g>
	<g>
		<path d="M186.921,333.206c-14.629-19.505-38.197-32.508-65.016-32.508s-50.387,13.003-65.016,32.508    c-9.752,13.816-16.254,30.07-16.254,48.762c0,18.692,6.502,34.946,16.254,48.762c14.629,19.505,38.197,32.508,65.016,32.508    s50.387-13.003,65.016-32.508c9.752-13.816,16.254-30.07,16.254-48.762C203.175,363.276,196.673,347.022,186.921,333.206z     M121.905,316.952c16.254,0,31.695,6.502,43.073,16.254H78.832C90.21,323.454,105.651,316.952,121.905,316.952z M65.829,349.46    h112.152c4.063,7.314,7.314,15.441,8.127,24.381H57.702C58.514,364.902,61.765,356.775,65.829,349.46z M121.905,446.984    c-16.254,0-31.695-6.502-43.073-16.254h85.333C153.6,440.483,138.159,446.984,121.905,446.984z M178.794,414.476H65.829    c-4.064-7.314-7.314-15.441-8.127-24.381h129.219C186.108,399.035,182.857,407.162,178.794,414.476z" fill="#2980b9"/>
	</g>
</g>
<g>
	<g>
		<path d="M406.349,365.714c-26.819,0-48.762,21.943-48.762,48.762c0,26.819,21.943,48.762,48.762,48.762    s48.762-21.943,48.762-48.762C455.111,387.657,433.168,365.714,406.349,365.714z M406.349,446.984    c-17.879,0-32.508-14.629-32.508-32.508c0-17.879,14.629-32.508,32.508-32.508s32.508,14.629,32.508,32.508    C438.857,432.356,424.229,446.984,406.349,446.984z" fill="#2980b9"/>
	</g>
</g>
<g>
	<g>
		<rect x="398.222" y="390.095" width="16.254" height="16.254" fill="#2980b9"/>
	</g>
</g>
<g>
	<g>
		<rect x="398.222" y="325.079" width="16.254" height="16.254" fill="#2980b9"/>
	</g>
</g>
<g>
	<g>
		<rect x="365.714" y="325.079" width="16.254" height="16.254" fill="#2980b9"/>
	</g>
</g>
<g>
	<g>
		<rect x="430.73" y="325.079" width="16.254" height="16.254" fill="#2980b9"/>
	</g>
</g>
<g>
</g>
<g>
</g>
<g>
</g>
<g>
</g>
<g>
</g>
<g>
</g>
<g>
</g>
<g>
</g>
<g>
</g>
<g>
</g>
<g>
</g>
<g>
</g>
<g>
</g>
<g>
</g>
<g>
</g>
</svg>
